<?xml version="1.0" standalone="no"?>
<!DOCTYPE svg PUBLIC "-//W3C//DTD SVG 20010904//EN"
 "http://www.w3.org/TR/2001/REC-SVG-20010904/DTD/svg10.dtd">
<svg version="1.0" xmlns="http://www.w3.org/2000/svg"
 width="256.000000pt" height="256.000000pt" viewBox="0 0 256.000000 256.000000"
 preserveAspectRatio="xMidYMid meet">

<g transform="translate(0.000000,256.000000) scale(0.100000,-0.100000)"
fill="#000000" stroke="none">
<path d="M1772 1784 c-3 -35 -60 -139 -103 -188 -46 -52 -164 -132 -333 -225
-186 -103 -275 -195 -317 -332 -22 -70 -24 -117 -7 -191 l12 -53 8 60 c4 32
16 82 25 110 l18 50 2 -115 c2 -63 5 -125 8 -137 9 -40 49 -51 192 -52 138 -2
183 8 197 44 3 9 6 86 6 171 l0 154 154 0 c85 0 162 3 171 6 36 14 46 59 44
197 -1 136 -11 178 -44 191 -9 3 -43 6 -75 6 l-59 0 34 50 c51 76 77 153 72
219 -2 31 -4 47 -5 35z m13 -504 l0 -135 -182 -3 -183 -2 -2 -183 -3 -182
-135 0 -135 0 -3 166 -2 166 42 39 c42 38 86 67 290 188 53 32 102 64 109 72
9 11 33 14 108 12 l96 -3 0 -135z"/>
</g>
</svg>
